<svg width="29" height="29" viewBox="0 0 29 29" fill="none" xmlns="http://www.w3.org/2000/svg">
<rect width="29" height="29" rx="5" fill="#B43838"/>
<path d="M12.225 18.4375L14.5 16.1625L16.775 18.4375L18 17.2125L15.725 14.9375L18 12.6625L16.775 11.4375L14.5 13.7125L12.225 11.4375L11 12.6625L13.275 14.9375L11 17.2125L12.225 18.4375ZM10.125 22.375C9.64375 22.375 9.23192 22.2038 8.8895 21.8614C8.5465 21.5184 8.375 21.1062 8.375 20.625V9.25H7.5V7.5H11.875V6.625H17.125V7.5H21.5V9.25H20.625V20.625C20.625 21.1062 20.4538 21.5184 20.1114 21.8614C19.7684 22.2038 19.3562 22.375 18.875 22.375H10.125Z" fill="white"/>
</svg>
